<mxfile host="app.diagrams.net" modified="2023-03-01T00:18:28.055Z" agent="5.0 (Windows NT 10.0; Win64; x64) AppleWebKit/537.36 (KHTML, like Gecko) Chrome/110.0.0.0 Safari/537.36" etag="8RWHrPpNso54l0HLD2NJ" version="20.8.23" type="github">
  <diagram name="Page-1" id="9f46799a-70d6-7492-0946-bef42562c5a5">
    <mxGraphModel dx="1434" dy="756" grid="1" gridSize="10" guides="1" tooltips="1" connect="1" arrows="1" fold="1" page="1" pageScale="1" pageWidth="1100" pageHeight="850" background="none" math="0" shadow="0">
      <root>
        <mxCell id="0" />
        <mxCell id="1" parent="0" />
        <object label="User" phone="numerical&#xa;numerical" id="78961159f06e98e8-17">
          <mxCell style="swimlane;html=1;fontStyle=1;align=center;verticalAlign=top;childLayout=stackLayout;horizontal=1;startSize=26;horizontalStack=0;resizeParent=1;resizeLast=0;collapsible=1;marginBottom=0;swimlaneFillColor=#ffffff;rounded=0;shadow=0;comic=0;labelBackgroundColor=none;strokeWidth=1;fillColor=none;fontFamily=Verdana;fontSize=12" parent="1" vertex="1">
            <mxGeometry x="90" y="83" width="160" height="140" as="geometry" />
          </mxCell>
        </object>
        <mxCell id="78961159f06e98e8-21" value="id: UUID&lt;br&gt;&amp;nbsp;" style="text;html=1;strokeColor=none;fillColor=none;align=left;verticalAlign=top;spacingLeft=4;spacingRight=4;whiteSpace=wrap;overflow=hidden;rotatable=0;points=[[0,0.5],[1,0.5]];portConstraint=eastwest;" parent="78961159f06e98e8-17" vertex="1">
          <mxGeometry y="26" width="160" height="26" as="geometry" />
        </mxCell>
        <mxCell id="78961159f06e98e8-23" value="username: varchar(20)" style="text;html=1;strokeColor=none;fillColor=none;align=left;verticalAlign=top;spacingLeft=4;spacingRight=4;whiteSpace=wrap;overflow=hidden;rotatable=0;points=[[0,0.5],[1,0.5]];portConstraint=eastwest;" parent="78961159f06e98e8-17" vertex="1">
          <mxGeometry y="52" width="160" height="26" as="geometry" />
        </mxCell>
        <mxCell id="78961159f06e98e8-25" value="password : varchar(64)" style="text;html=1;strokeColor=none;fillColor=none;align=left;verticalAlign=top;spacingLeft=4;spacingRight=4;whiteSpace=wrap;overflow=hidden;rotatable=0;points=[[0,0.5],[1,0.5]];portConstraint=eastwest;" parent="78961159f06e98e8-17" vertex="1">
          <mxGeometry y="78" width="160" height="26" as="geometry" />
        </mxCell>
        <mxCell id="Pq9tIiLYYxP9BWqPIEf5-1" value="phone : number" style="text;html=1;strokeColor=none;fillColor=none;align=left;verticalAlign=top;spacingLeft=4;spacingRight=4;whiteSpace=wrap;overflow=hidden;rotatable=0;points=[[0,0.5],[1,0.5]];portConstraint=eastwest;" vertex="1" parent="78961159f06e98e8-17">
          <mxGeometry y="104" width="160" height="36" as="geometry" />
        </mxCell>
        <mxCell id="597dUe0zLM4C-vA0vzMl-2" value="Token" style="swimlane;html=1;fontStyle=1;align=center;verticalAlign=top;childLayout=stackLayout;horizontal=1;startSize=26;horizontalStack=0;resizeParent=1;resizeLast=0;collapsible=1;marginBottom=0;swimlaneFillColor=#ffffff;rounded=0;shadow=0;comic=0;labelBackgroundColor=none;strokeWidth=1;fillColor=none;fontFamily=Verdana;fontSize=12" parent="1" vertex="1">
          <mxGeometry x="430" y="83" width="160" height="117" as="geometry" />
        </mxCell>
        <mxCell id="597dUe0zLM4C-vA0vzMl-3" value="id: UUID&lt;br&gt;&amp;nbsp;" style="text;html=1;strokeColor=none;fillColor=none;align=left;verticalAlign=top;spacingLeft=4;spacingRight=4;whiteSpace=wrap;overflow=hidden;rotatable=0;points=[[0,0.5],[1,0.5]];portConstraint=eastwest;" parent="597dUe0zLM4C-vA0vzMl-2" vertex="1">
          <mxGeometry y="26" width="160" height="26" as="geometry" />
        </mxCell>
        <mxCell id="597dUe0zLM4C-vA0vzMl-4" value="token: text" style="text;html=1;strokeColor=none;fillColor=none;align=left;verticalAlign=top;spacingLeft=4;spacingRight=4;whiteSpace=wrap;overflow=hidden;rotatable=0;points=[[0,0.5],[1,0.5]];portConstraint=eastwest;" parent="597dUe0zLM4C-vA0vzMl-2" vertex="1">
          <mxGeometry y="52" width="160" height="26" as="geometry" />
        </mxCell>
        <mxCell id="597dUe0zLM4C-vA0vzMl-5" value="last_refresh : bigint" style="text;html=1;strokeColor=none;fillColor=none;align=left;verticalAlign=top;spacingLeft=4;spacingRight=4;whiteSpace=wrap;overflow=hidden;rotatable=0;points=[[0,0.5],[1,0.5]];portConstraint=eastwest;" parent="597dUe0zLM4C-vA0vzMl-2" vertex="1">
          <mxGeometry y="78" width="160" height="26" as="geometry" />
        </mxCell>
        <mxCell id="597dUe0zLM4C-vA0vzMl-11" value="" style="endArrow=classic;html=1;rounded=0;exitX=0;exitY=0.5;exitDx=0;exitDy=0;entryX=1;entryY=0.5;entryDx=0;entryDy=0;" parent="1" source="597dUe0zLM4C-vA0vzMl-3" target="78961159f06e98e8-21" edge="1">
          <mxGeometry width="50" height="50" relative="1" as="geometry">
            <mxPoint x="420" y="120" as="sourcePoint" />
            <mxPoint x="330" y="120" as="targetPoint" />
          </mxGeometry>
        </mxCell>
        <mxCell id="597dUe0zLM4C-vA0vzMl-19" value="Trip" style="swimlane;html=1;fontStyle=1;align=center;verticalAlign=top;childLayout=stackLayout;horizontal=1;startSize=26;horizontalStack=0;resizeParent=1;resizeLast=0;collapsible=1;marginBottom=0;swimlaneFillColor=#ffffff;rounded=0;shadow=0;comic=0;labelBackgroundColor=none;strokeWidth=1;fillColor=none;fontFamily=Verdana;fontSize=12" parent="1" vertex="1">
          <mxGeometry x="90" y="290" width="160" height="117" as="geometry" />
        </mxCell>
        <mxCell id="597dUe0zLM4C-vA0vzMl-20" value="id: UUID&lt;br&gt;&amp;nbsp;" style="text;html=1;strokeColor=none;fillColor=none;align=left;verticalAlign=top;spacingLeft=4;spacingRight=4;whiteSpace=wrap;overflow=hidden;rotatable=0;points=[[0,0.5],[1,0.5]];portConstraint=eastwest;" parent="597dUe0zLM4C-vA0vzMl-19" vertex="1">
          <mxGeometry y="26" width="160" height="26" as="geometry" />
        </mxCell>
        <mxCell id="597dUe0zLM4C-vA0vzMl-21" value="name: varchar(20)" style="text;html=1;strokeColor=none;fillColor=none;align=left;verticalAlign=top;spacingLeft=4;spacingRight=4;whiteSpace=wrap;overflow=hidden;rotatable=0;points=[[0,0.5],[1,0.5]];portConstraint=eastwest;" parent="597dUe0zLM4C-vA0vzMl-19" vertex="1">
          <mxGeometry y="52" width="160" height="28" as="geometry" />
        </mxCell>
        <mxCell id="597dUe0zLM4C-vA0vzMl-22" value="price: numerical" style="text;html=1;strokeColor=none;fillColor=none;align=left;verticalAlign=top;spacingLeft=4;spacingRight=4;whiteSpace=wrap;overflow=hidden;rotatable=0;points=[[0,0.5],[1,0.5]];portConstraint=eastwest;" parent="597dUe0zLM4C-vA0vzMl-19" vertex="1">
          <mxGeometry y="80" width="160" height="26" as="geometry" />
        </mxCell>
        <mxCell id="597dUe0zLM4C-vA0vzMl-23" value="Trip_User" style="swimlane;html=1;fontStyle=1;align=center;verticalAlign=top;childLayout=stackLayout;horizontal=1;startSize=26;horizontalStack=0;resizeParent=1;resizeLast=0;collapsible=1;marginBottom=0;swimlaneFillColor=#ffffff;rounded=0;shadow=0;comic=0;labelBackgroundColor=none;strokeWidth=1;fillColor=none;fontFamily=Verdana;fontSize=12" parent="1" vertex="1">
          <mxGeometry x="440" y="290" width="160" height="117" as="geometry" />
        </mxCell>
        <mxCell id="597dUe0zLM4C-vA0vzMl-24" value="user: UUID&lt;br&gt;&amp;nbsp;" style="text;html=1;strokeColor=none;fillColor=none;align=left;verticalAlign=top;spacingLeft=4;spacingRight=4;whiteSpace=wrap;overflow=hidden;rotatable=0;points=[[0,0.5],[1,0.5]];portConstraint=eastwest;" parent="597dUe0zLM4C-vA0vzMl-23" vertex="1">
          <mxGeometry y="26" width="160" height="26" as="geometry" />
        </mxCell>
        <mxCell id="597dUe0zLM4C-vA0vzMl-25" value="trip: UUID" style="text;html=1;strokeColor=none;fillColor=none;align=left;verticalAlign=top;spacingLeft=4;spacingRight=4;whiteSpace=wrap;overflow=hidden;rotatable=0;points=[[0,0.5],[1,0.5]];portConstraint=eastwest;" parent="597dUe0zLM4C-vA0vzMl-23" vertex="1">
          <mxGeometry y="52" width="160" height="28" as="geometry" />
        </mxCell>
        <mxCell id="597dUe0zLM4C-vA0vzMl-26" value="payed: boolean" style="text;html=1;strokeColor=none;fillColor=none;align=left;verticalAlign=top;spacingLeft=4;spacingRight=4;whiteSpace=wrap;overflow=hidden;rotatable=0;points=[[0,0.5],[1,0.5]];portConstraint=eastwest;" parent="597dUe0zLM4C-vA0vzMl-23" vertex="1">
          <mxGeometry y="80" width="160" height="26" as="geometry" />
        </mxCell>
        <mxCell id="597dUe0zLM4C-vA0vzMl-30" value="" style="endArrow=classic;html=1;rounded=0;fontFamily=Verdana;exitX=0;exitY=0.5;exitDx=0;exitDy=0;entryX=1;entryY=0.5;entryDx=0;entryDy=0;" parent="1" source="597dUe0zLM4C-vA0vzMl-24" target="78961159f06e98e8-21" edge="1">
          <mxGeometry width="50" height="50" relative="1" as="geometry">
            <mxPoint x="370" y="310" as="sourcePoint" />
            <mxPoint x="380" y="280" as="targetPoint" />
          </mxGeometry>
        </mxCell>
        <mxCell id="597dUe0zLM4C-vA0vzMl-31" value="" style="endArrow=classic;html=1;rounded=0;fontFamily=Verdana;exitX=0;exitY=0.5;exitDx=0;exitDy=0;entryX=1;entryY=0.5;entryDx=0;entryDy=0;" parent="1" source="597dUe0zLM4C-vA0vzMl-25" target="597dUe0zLM4C-vA0vzMl-20" edge="1">
          <mxGeometry width="50" height="50" relative="1" as="geometry">
            <mxPoint x="290" y="340" as="sourcePoint" />
            <mxPoint x="340" y="290" as="targetPoint" />
          </mxGeometry>
        </mxCell>
      </root>
    </mxGraphModel>
  </diagram>
</mxfile>
